<svg width="49" height="24" viewBox="0 0 49 24" fill="none" xmlns="http://www.w3.org/2000/svg">
<path d="M7.39717 6.29938C7.92076 6.14622 8.47925 6.06454 9.05868 6.06454C11.5952 6.06454 13.7128 7.64507 14.1968 9.74631L17.7921 9.10308C16.9683 5.53362 13.3707 2.84631 9.05868 2.84631C8.06969 2.84631 7.12258 2.98721 6.23364 3.24859L7.39717 6.29938Z" fill="#C7C7C7"/>
<path d="M3.64937 17.7962L6.23358 15.1922C5.08119 14.2815 4.35415 12.9519 4.35415 11.4701C4.35415 9.99059 5.08119 8.66099 6.23358 7.75253L3.64937 5.14624C1.69081 6.69414 0.454346 8.95425 0.454346 11.4701C0.454346 13.9882 1.69081 16.2483 3.64937 17.7962" fill="#919191"/>
<path d="M14.1968 12.0463C13.7105 14.4968 11.5952 16.3394 9.06101 16.3394C8.47925 16.3394 7.91843 16.2441 7.39717 16.0629L6.23364 19.629C7.12258 19.9318 8.07201 20.0963 9.06101 20.0963C13.3684 20.0963 16.9637 16.964 17.7921 12.8019L14.1968 12.0463Z" fill="#ADADAD"/>
<path d="M20.9332 15.2787C20.8143 15.096 20.6559 14.8042 20.558 14.5881C19.987 13.3226 19.9614 12.0126 20.4415 10.7561C20.9705 9.37702 21.982 8.32322 23.2894 7.78407C24.9324 7.10902 26.748 7.24046 28.3234 8.13385C29.3232 8.68191 30.0317 9.52851 30.5701 10.7271C30.6377 10.8808 30.6983 11.0435 30.7588 11.1838L20.9332 15.2787ZM24.2146 9.81814C23.047 10.2971 22.4457 11.3443 22.5716 12.5696L27.5124 10.5355C26.6617 9.58198 25.557 9.26562 24.2146 9.81814V9.81814ZM28.1276 14.2427C28.1253 14.2427 28.1253 14.245 28.1253 14.245L28.0228 14.1781C27.7268 14.6349 27.2677 15.0069 26.6874 15.2475C25.5827 15.7065 24.5596 15.5884 23.8231 14.9713L23.7555 15.0693C23.7555 15.0693 23.7555 15.0671 23.7532 15.0671L22.4993 16.8605C22.8116 17.0677 23.1449 17.2415 23.4945 17.3819C24.8788 17.9321 26.2958 17.9054 27.6918 17.3262C28.701 16.9073 29.4934 16.2701 30.034 15.4614L28.1276 14.2427ZM34.1918 5.14624V15.1139L35.8138 15.7421L34.8933 17.7962L33.1034 17.0833C32.7025 16.9162 32.4275 16.6622 32.2224 16.3748C32.0243 16.083 31.8775 15.6797 31.8775 15.1406V5.14624H34.1918ZM38.3914 12.5763C38.3914 11.7274 38.7853 10.9655 39.4052 10.4486L37.7412 8.67523C36.6132 9.62877 35.9024 11.0212 35.9024 12.5718C35.9001 14.1247 36.6109 15.5193 37.7366 16.4729L39.3982 14.6995C38.7806 14.1804 38.3914 13.4229 38.3914 12.5763V12.5763ZM41.3466 15.4035C41.0203 15.4035 40.7034 15.35 40.4097 15.2564L39.615 17.5133C40.158 17.6871 40.7383 17.7829 41.3443 17.7829C43.9778 17.7851 46.1755 15.9983 46.6859 13.6256L44.2435 13.1488C43.9661 14.4388 42.7752 15.4057 41.3466 15.4035V15.4035ZM41.3536 7.36968C40.75 7.36968 40.1697 7.46325 39.6266 7.6348L40.4144 9.89389C40.7103 9.80032 41.025 9.74908 41.3513 9.74908C42.7822 9.7513 43.9755 10.7227 44.2458 12.0148L46.6882 11.5425C46.1872 9.16537 43.9894 7.37191 41.3536 7.36968V7.36968Z" fill="#EEEEEE"/>
</svg>
