<svg width="53" height="24" viewBox="0 0 53 24" fill="none" xmlns="http://www.w3.org/2000/svg">
<g clip-path="url(#clip0_605_361)">
<path d="M14.552 0.191467H9.06023C6.63357 0.305874 4.65003 1.28046 4.0773 3.2902C3.77866 4.33832 3.61431 5.48944 3.38079 6.57594C2.19362 12.1004 1.14095 17.7772 0.00537109 23.1915H42.7612C46.0666 23.1915 48.3363 22.495 48.9495 19.8789C49.2344 18.6636 49.5073 17.2873 49.7799 15.9522C50.8426 10.7465 51.9062 5.5412 52.9948 0.191467H14.552Z" fill="#727272"/>
<path d="M14.1233 8.36572C14.353 8.20795 14.6488 7.48946 14.3109 7.19032C14.2038 7.09562 14.0248 7.06814 13.7751 7.11025C13.5434 7.14925 13.4102 7.22777 13.3197 7.35068C13.1743 7.54827 13.0408 8.14437 13.2661 8.36582C13.4856 8.58136 13.9772 8.46602 14.1233 8.36572V8.36572ZM10.8551 7.19032C10.6905 8.25504 10.5051 9.29902 10.3192 10.3425C9.12584 10.355 7.90736 10.4012 6.75628 10.3157C6.97368 9.29487 7.12961 8.21262 7.34566 7.19032H6.05977C5.59949 9.7944 5.18071 12.4401 4.66675 14.9906H5.97947C6.18532 13.6824 6.37797 12.3606 6.64914 11.1172C7.76839 11.0897 9.10982 11.0418 10.1854 11.1439C9.96361 12.4366 9.69565 13.683 9.48886 14.9906H10.8016C11.2235 12.3481 11.6678 9.72812 12.1947 7.19032H10.8551V7.19032ZM29.4201 9.43427C28.3987 9.02291 27.5957 9.71806 27.2234 10.3692C27.3078 10.0795 27.3426 9.74026 27.411 9.43427H26.393C26.1441 11.3589 25.7773 13.1657 25.4286 14.9906H26.5807C26.7421 13.9074 26.8118 12.4472 27.1699 11.411C27.4562 10.583 28.2053 9.87759 29.2863 10.2624C29.3013 9.95693 29.389 9.72376 29.4201 9.43427V9.43427ZM30.0629 13.6817C29.9567 13.4081 29.9293 12.9565 29.9559 12.6131C30.0154 11.8413 30.2975 10.9015 30.7328 10.4761C31.3335 9.88889 32.5194 9.98608 33.4654 10.3158C33.4946 9.9979 33.5587 9.71432 33.5993 9.40762C32.048 9.15495 30.5759 9.31219 29.7954 10.1289C29.0311 10.9284 28.5304 12.766 28.8844 13.9222C29.2988 15.2751 31.1572 15.3487 32.6617 14.8305C32.7283 14.5585 32.7635 14.2553 32.8224 13.9757C32.0001 14.4015 30.4283 14.6228 30.0629 13.6817V13.6817ZM43.0022 9.46093C41.9841 8.95331 41.1365 9.80508 40.8056 10.3157C40.8998 10.0537 40.9052 9.70281 40.993 9.43417H39.9751C39.7006 11.3421 39.3698 13.1937 38.984 14.9905H40.1627C40.1701 14.2541 40.3152 13.7093 40.4305 12.9872C40.6768 11.4451 41.0386 9.75395 42.8417 10.2623C42.9013 10.0015 42.9262 9.70572 43.0022 9.46093ZM12.9446 9.43427C12.9134 9.43873 12.9155 9.47649 12.9177 9.51435C12.6639 11.4072 12.3204 13.2107 11.9534 14.9905H13.1053C13.3821 13.0849 13.6991 11.2197 14.0965 9.43417L12.9446 9.43427V9.43427ZM23.0709 9.32744C22.2386 9.39143 21.535 9.63021 21.035 10.1556C20.4217 10.7998 19.9251 12.2242 20.0706 13.5215C20.2782 15.3721 22.589 15.3056 24.4372 14.8571C24.4688 14.5323 24.5476 14.2546 24.5979 13.9488C23.8366 14.2329 22.5146 14.6295 21.7314 14.1359C21.1401 13.7631 21.1367 12.8193 21.3296 11.9988C22.5718 11.9594 23.8628 11.9669 25.1068 11.9988C25.1857 11.4174 25.4115 10.7834 25.2139 10.2091C24.9535 9.45087 24.0204 9.25442 23.0709 9.32744ZM24.1693 11.3576H21.4634C21.5491 10.7373 22.1088 10.0556 22.9905 10.022C23.8204 9.99033 24.4146 10.3258 24.1693 11.3576V11.3576ZM18.7043 9.43427C17.7294 9.06906 16.5411 9.50501 16.0259 9.9197C16.0278 9.93795 16.0137 9.94044 15.9985 9.94179C16.0072 9.93443 16.0168 9.92706 16.0259 9.9197C16.0259 9.91817 16.0257 9.91664 16.0254 9.91513C16.0341 9.73683 16.097 9.61257 16.1057 9.43427H15.1145C14.7015 12.1745 14.2116 14.8381 13.6948 17.4749H14.8467C15.0134 16.448 15.1235 15.3646 15.3557 14.4029C15.6188 15.4144 17.3366 15.2212 18.0615 14.8304C19.557 14.0238 20.7105 10.1856 18.7043 9.43427V9.43427ZM17.7935 13.9488C17.1772 14.5997 15.6621 14.5899 15.5432 13.4946C15.4915 13.0181 15.6695 12.5185 15.7577 12.0255C15.8466 11.5265 15.9108 11.0477 15.9986 10.6097C16.6056 9.87053 18.3895 9.78123 18.5705 11.0103C18.7274 12.0775 18.3039 13.4098 17.7935 13.9488V13.9488ZM47.2885 7.03007C47.1897 7.89326 47.0577 8.72335 46.8867 9.51435C44.0611 8.62243 42.3282 10.6955 42.3594 13.2543C42.3655 13.7492 42.4509 14.2399 42.7611 14.5899C43.2962 15.193 44.8276 15.3375 45.601 14.8303C45.7505 14.7321 45.9035 14.5535 46.0027 14.4297C46.0773 14.3364 46.1955 14.0922 46.2171 14.1625C46.1763 14.4335 46.1155 14.6847 46.11 14.9905H47.1548C47.3563 12.1103 47.9787 9.65033 48.4407 7.02997H47.2886V7.03007H47.2885ZM44.7168 14.3762C43.9413 14.3928 43.5557 13.9142 43.5379 13.1207C43.5071 11.731 44.1184 10.1871 45.3597 10.0486C45.9377 9.98421 46.3561 10.1182 46.7796 10.2624C46.3908 11.8234 46.5311 14.3374 44.7168 14.3762V14.3762ZM34.7779 9.43427C34.7212 9.75167 34.6341 10.0389 34.5636 10.3425C35.2434 10.1725 37.36 9.65137 37.564 10.5561C37.6317 10.8567 37.5149 11.1761 37.43 11.411C35.5161 11.2302 33.956 11.5473 33.5456 12.9069C33.2707 13.8176 33.5764 14.7138 34.1618 14.964C35.2892 15.4457 36.6606 14.8938 37.1354 14.1359C37.0861 14.3983 37.0394 14.6635 37.0552 14.9906H38.0463C38.0569 14.044 38.195 13.2778 38.3409 12.4261C38.4654 11.7007 38.6995 10.9827 38.6625 10.3425C38.5772 8.87634 36.1414 9.39496 34.7779 9.43427V9.43427ZM36.6531 13.9221C36.0595 14.5016 34.3931 14.6662 34.5636 13.281C34.7051 12.1305 35.9614 11.886 37.3227 12.052C37.2216 12.6814 37.1055 13.4805 36.6531 13.9221V13.9221Z" fill="#EEEEEE"/>
</g>
<defs>
<clipPath id="clip0_605_361">
<rect width="53" height="23" fill="white" transform="translate(0 0.191467)"/>
</clipPath>
</defs>
</svg>
