<svg width="37" height="23" viewBox="0 0 37 23" fill="none" xmlns="http://www.w3.org/2000/svg">
<path fill-rule="evenodd" clip-rule="evenodd" d="M18.5 19.9567C19.6489 18.9085 20.5661 17.6318 21.1927 16.2085C21.8193 14.7851 22.1416 13.2465 22.1388 11.6913C22.1416 10.1362 21.8194 8.59754 21.1928 7.17418C20.5662 5.75082 19.649 4.47414 18.5 3.42602C16.5354 1.63266 13.9292 0.539795 11.0693 0.539795C4.95607 0.539795 0 5.53245 0 11.6913C0 17.85 4.95607 22.8429 11.0693 22.8429C13.9292 22.8429 16.5356 21.75 18.5 19.9567Z" fill="#8A8A8A"/>
<path fill-rule="evenodd" clip-rule="evenodd" d="M25.9308 0.539795C23.0709 0.539795 20.4643 1.63266 18.5001 3.42602C18.0995 3.79205 17.726 4.18664 17.3825 4.6067H19.6169C19.9237 4.98163 20.2057 5.37608 20.4614 5.78757H16.5386C16.3025 6.16809 16.0894 6.56242 15.9004 6.96844H21.0986C21.2775 7.35274 21.4343 7.74694 21.5683 8.14912H15.4317C15.3031 8.53649 15.1958 8.93065 15.1104 9.32979H21.8898C22.0558 10.106 22.1393 10.8976 22.139 11.6913C22.139 12.9294 21.9381 14.1205 21.5685 15.2334H15.4317C15.5652 15.6356 15.7217 16.0299 15.9004 16.4142H21.0986C20.91 16.8203 20.6971 17.2146 20.4612 17.5951H16.5386C16.794 18.0066 17.0758 18.401 17.3823 18.776H19.6169C19.2738 19.1962 18.9006 19.5909 18.5001 19.9569C20.4643 21.7502 23.0709 22.8431 25.9308 22.8431C32.0438 22.8431 37.0001 17.8502 37.0001 11.6915C37.0001 5.53245 32.0438 0.539795 25.9308 0.539795Z" fill="#777777"/>
<path fill-rule="evenodd" clip-rule="evenodd" d="M33.1853 14.1082C33.1853 13.9092 33.3453 13.7479 33.5426 13.7479C33.74 13.7479 33.9 13.9092 33.9 14.1082C33.9 14.3071 33.74 14.4681 33.5426 14.4681C33.3453 14.4681 33.1853 14.3069 33.1853 14.1082ZM33.5424 14.3815C33.6924 14.3815 33.814 14.2591 33.814 14.108C33.814 13.9565 33.6924 13.8341 33.5424 13.8341C33.3921 13.8341 33.2709 13.9565 33.2709 14.108C33.2709 14.2591 33.3923 14.3815 33.5424 14.3815ZM33.4942 14.266H33.4208V13.9496H33.5537C33.5812 13.9496 33.6097 13.95 33.6336 13.9658C33.6462 13.9746 33.6565 13.9864 33.6635 14.0001C33.6705 14.0139 33.674 14.0291 33.6738 14.0445C33.6738 14.0805 33.6532 14.1137 33.6194 14.1264L33.6773 14.2658H33.5962L33.548 14.1406H33.4944V14.266V14.0868H33.5349C33.55 14.0868 33.5666 14.088 33.5794 14.0807C33.5852 14.0766 33.59 14.0711 33.5932 14.0648C33.5965 14.0585 33.5981 14.0514 33.598 14.0443C33.5979 14.0379 33.5962 14.0316 33.5931 14.0259C33.59 14.0203 33.5856 14.0154 33.5802 14.0119C33.5676 14.0046 33.547 14.0061 33.5335 14.0061H33.4946V14.266H33.4942ZM9.68648 14.4681H8.30883L9.12759 10.122L7.24246 14.4681H5.98624L5.75663 10.1469L4.9353 14.4681H3.68481L4.75336 8.81453H6.90309L7.01681 12.3146L8.53251 8.81453H10.7726L9.68648 14.4681V14.4681ZM25.0829 14.4118C24.706 14.516 24.4113 14.5609 24.0929 14.5609C23.388 14.5609 23.0032 14.2047 23.0032 13.5513C23.0032 13.4219 23.0174 13.2843 23.0437 13.1387L23.1276 12.6892L23.1921 12.3253L23.8307 8.81433H25.2008L25.0022 9.87021H25.7053L25.5164 10.988H24.8104L24.4473 12.9064C24.4338 12.969 24.426 13.0327 24.4238 13.0968C24.4238 13.3343 24.5663 13.4376 24.8939 13.4376C25.0507 13.4376 25.1723 13.4233 25.2655 13.3946L25.0829 14.4118ZM29.1067 9.90799C28.9912 9.86211 28.9641 9.86211 28.9507 9.85835C28.8777 9.84213 28.8387 9.83264 28.832 9.83145C28.7862 9.82345 28.7398 9.81961 28.6934 9.81998C28.2411 9.81998 27.915 10.0229 27.4933 10.5666L27.6149 9.86982H26.3672L25.5275 14.4679H26.9061C27.3994 11.6559 27.6106 11.1634 28.2719 11.1634C28.3218 11.1634 28.3793 11.1674 28.4462 11.1751L28.6071 11.2081L29.1067 9.90799V9.90799ZM19.6216 11.3228C19.6216 11.9037 19.9465 12.3038 20.683 12.6044C21.2474 12.8354 21.3346 12.903 21.3346 13.1118C21.3346 13.398 21.0858 13.5271 20.5347 13.5271C20.1185 13.5271 19.7319 13.4708 19.2855 13.3452L19.0943 14.4058L19.156 14.4163L19.4113 14.4634C19.4936 14.4776 19.6148 14.4913 19.7756 14.5035C20.1071 14.5294 20.3636 14.5417 20.5443 14.5417C22.0149 14.5417 22.6943 14.0562 22.6943 13.0074C22.6943 12.3763 22.4103 12.0063 21.712 11.7277C21.1276 11.4949 21.0599 11.4433 21.0599 11.2287C21.0599 10.9809 21.2917 10.8535 21.742 10.8535C22.0159 10.8535 22.3893 10.8794 22.7435 10.9225L22.9421 9.85815C22.5814 9.80871 22.0339 9.76817 21.7157 9.76817C20.1565 9.76836 19.6168 10.4748 19.6216 11.3228V11.3228ZM14.1651 14.4681H13.0203L13.047 13.9915C12.6983 14.3688 12.2335 14.5476 11.6019 14.5476C10.8553 14.5476 10.3429 14.0354 10.3429 13.2918C10.3429 12.1716 11.233 11.5188 12.763 11.5188C12.9198 11.5188 13.1189 11.5313 13.3242 11.5542C13.3669 11.4031 13.3786 11.3379 13.3786 11.2556C13.3786 10.9512 13.1383 10.8373 12.495 10.8373C12.1016 10.8373 11.657 10.8871 11.3501 10.9655L11.1593 11.0143L11.0357 11.044L11.2267 10.0102C11.9135 9.83303 12.3668 9.76599 12.8761 9.76599C14.0601 9.76599 14.6859 10.2331 14.6859 11.1148C14.6859 11.3416 14.6651 11.5139 14.5739 12.0257L14.286 13.6569L14.2375 13.9496L14.2023 14.1833L14.1788 14.3433L14.1651 14.4681V14.4681ZM13.1601 12.4196C13.0579 12.4069 12.9551 12.4006 12.8522 12.4007C12.0714 12.4007 11.6758 12.6358 11.6758 13.1002C11.6758 13.3863 11.8689 13.5691 12.1701 13.5691C12.7317 13.5693 13.1363 13.0996 13.1601 12.4196ZM18.6847 14.3688C18.2246 14.4937 17.7498 14.5564 17.2731 14.5553C15.7328 14.5542 14.9301 13.8477 14.9301 12.4954C14.9301 10.917 15.9514 9.75492 17.3377 9.75492C18.4719 9.75492 19.1962 10.4058 19.1962 11.4263C19.1962 11.765 19.1467 12.0953 19.0271 12.5614H16.2878C16.2794 12.6091 16.275 12.6574 16.2745 12.7058C16.2745 13.2388 16.6829 13.5107 17.4831 13.5107C17.9751 13.5107 18.4199 13.4207 18.9137 13.2198L18.6847 14.3688ZM17.951 11.6329C17.9585 11.5372 17.9625 11.4589 17.9625 11.3984C17.9625 11.025 17.721 10.8059 17.3108 10.8059C16.8726 10.8059 16.5591 11.0997 16.432 11.6302L17.951 11.6329ZM33.3892 12.3835C33.1829 13.913 32.1227 14.5913 30.7132 14.5913C29.1546 14.5913 28.5251 13.6389 28.5251 12.4719C28.5251 10.8422 29.5912 9.73811 31.2379 9.73811C32.6671 9.73811 33.426 10.6461 33.426 11.8133C33.426 12.0973 33.4256 12.1161 33.3892 12.3835ZM31.9704 11.7951C31.9704 11.3141 31.7766 10.86 31.2118 10.86C30.5087 10.86 30.073 11.6972 30.073 12.4363C30.073 13.0596 30.3716 13.4785 30.8641 13.4696C31.1627 13.4696 31.7995 13.0598 31.9255 12.3441C31.955 12.1772 31.9704 11.994 31.9704 11.7951V11.7951Z" fill="#EEEEEE"/>
</svg>
